<?xml version="1.0" encoding="UTF-8" standalone="no"?>
<svg width="50px" height="50px" viewBox="0 0 50 50" version="1.1" xmlns="http://www.w3.org/2000/svg" xmlns:xlink="http://www.w3.org/1999/xlink">
    <!-- Generator: Sketch 3.7.2 (28276) - http://www.bohemiancoding.com/sketch -->
    <title>grouppages_on</title>
    <desc>Created with Sketch.</desc>
    <defs></defs>
    <g id="Page-1" stroke="none" stroke-width="1" fill="none" fill-rule="evenodd">
        <g id="Desktop" transform="translate(-411.000000, -711.000000)">
            <g id="groups" transform="translate(411.000000, 711.000000)">
                <g id="Content_Collection" transform="translate(6.000000, 6.000000)">
                    <g id="Icons">
                        <g id="Group">
                            <path d="M30,21.95 L26,26.95" id="Shape" stroke="#767676" fill="#FFFFFF"></path>
                            <path d="M8,21.95 L12,26.95" id="Shape" stroke="#767676" fill="#FFFFFF"></path>
                            <path d="M7,8.45 C3.41,8.45 0.5,11.714 0.5,15.74 C0.5,17.097 0.836,18.362 1.412,19.45 L12.588,19.45 C13.164,18.362 13.5,17.097 13.5,15.74 C13.5,11.714 10.59,8.45 7,8.45 L7,8.45 Z" id="Shape" stroke="#767676" fill="#FFFFFF"></path>
                            <g transform="translate(2.000000, 0.000000)" id="Shape">
                                <path d="M5,12.45 C2.519,12.45 0.5,9.983 0.5,6.95 C0.5,3.917 2.519,1.45 5,1.45 C7.481,1.45 9.5,3.917 9.5,6.95 C9.5,9.983 7.481,12.45 5,12.45 L5,12.45 Z" fill="#FFFFFF"></path>
                                <path d="M5,1.95 C7.206,1.95 9,4.193 9,6.95 C9,9.707 7.206,11.95 5,11.95 C2.794,11.95 1,9.707 1,6.95 C1,4.193 2.794,1.95 5,1.95 L5,1.95 Z M5,0.95 C2.239,0.95 0,3.636 0,6.95 C0,10.264 2.239,12.95 5,12.95 C7.761,12.95 10,10.264 10,6.95 C10,3.636 7.761,0.95 5,0.95 L5,0.95 L5,0.95 Z" fill="#767676"></path>
                            </g>
                            <path d="M31,8.45 C27.41,8.45 24.5,11.714 24.5,15.74 C24.5,17.097 24.836,18.362 25.412,19.45 L36.588,19.45 C37.164,18.362 37.5,17.097 37.5,15.74 C37.5,11.714 34.59,8.45 31,8.45 L31,8.45 Z" id="Shape" stroke="#767676" fill="#FFFFFF"></path>
                            <g transform="translate(26.000000, 0.000000)" id="Shape">
                                <path d="M5,12.45 C2.519,12.45 0.5,9.983 0.5,6.95 C0.5,3.917 2.519,1.45 5,1.45 C7.481,1.45 9.5,3.917 9.5,6.95 C9.5,9.983 7.481,12.45 5,12.45 L5,12.45 Z" fill="#FFFFFF"></path>
                                <path d="M5,1.95 C7.206,1.95 9,4.193 9,6.95 C9,9.707 7.206,11.95 5,11.95 C2.794,11.95 1,9.707 1,6.95 C1,4.193 2.794,1.95 5,1.95 L5,1.95 Z M5,0.95 C2.239,0.95 0,3.636 0,6.95 C0,10.264 2.239,12.95 5,12.95 C7.761,12.95 10,10.264 10,6.95 C10,3.636 7.761,0.95 5,0.95 L5,0.95 L5,0.95 Z" fill="#767676"></path>
                            </g>
                            <path d="M19,27.45 C15.41,27.45 12.5,30.714 12.5,34.74 C12.5,36.097 12.836,37.362 13.412,38.45 L24.588,38.45 C25.164,37.362 25.5,36.097 25.5,34.74 C25.5,30.714 22.59,27.45 19,27.45 L19,27.45 Z" id="Shape" stroke="#767676" fill="#FFFFFF"></path>
                            <g transform="translate(14.000000, 19.000000)" id="Shape">
                                <path d="M5,12.45 C2.519,12.45 0.5,9.983 0.5,6.95 C0.5,3.917 2.519,1.45 5,1.45 C7.481,1.45 9.5,3.917 9.5,6.95 C9.5,9.983 7.481,12.45 5,12.45 L5,12.45 Z" fill="#FFFFFF"></path>
                                <path d="M5,1.95 C7.206,1.95 9,4.193 9,6.95 C9,9.707 7.206,11.95 5,11.95 C2.794,11.95 1,9.707 1,6.95 C1,4.193 2.794,1.95 5,1.95 L5,1.95 Z M5,0.95 C2.239,0.95 0,3.636 0,6.95 C0,10.264 2.239,12.95 5,12.95 C7.761,12.95 10,10.264 10,6.95 C10,3.636 7.761,0.95 5,0.95 L5,0.95 L5,0.95 Z" fill="#767676"></path>
                            </g>
                        </g>
                    </g>
                </g>
            </g>
        </g>
    </g>
</svg>